<?xml version="1.0" encoding="UTF-8"?>
<svg version="1.1" xmlns="http://www.w3.org/2000/svg" width="1254" height="1254">
<path d="M0 0 C413.82 0 827.64 0 1254 0 C1254 413.82 1254 827.64 1254 1254 C840.18 1254 426.36 1254 0 1254 C0 840.18 0 426.36 0 0 Z " fill="#FCFBF9" transform="translate(0,0)"/>
<path d="M0 0 C2.78874404 0.29342395 5.57720021 0.52308148 8.37255859 0.74365234 C22.15018702 1.96435185 35.34730032 4.88112258 48.73583984 8.23193359 C49.60763885 8.44889893 50.47943787 8.66586426 51.37765503 8.8894043 C59.71792221 10.98113312 67.92911581 13.05122202 75.84448242 16.46557617 C78.55505741 17.61544523 81.33774734 18.38797109 84.17333984 19.16943359 C90.82237933 21.17112809 96.6705292 24.07005576 102.79833984 27.29443359 C104.02163073 27.9025782 105.24699429 28.50656682 106.47412109 29.10693359 C120.90725774 36.17165028 135.02278957 43.47785271 147.79833984 53.29443359 C149.58828356 54.56769252 151.3799947 55.83846996 153.17333984 57.10693359 C169.386618 68.90261385 184.99177262 82.72754726 197.46240234 98.42333984 C199.32692673 100.71502116 201.23224793 102.92658926 203.19287109 105.13427734 C221.95861894 126.49801195 236.89177544 152.92180137 246.48974609 179.66162109 C247.59678552 182.73489472 248.75933584 185.76751428 249.98583984 188.79443359 C250.45570313 189.96619141 250.45570313 189.96619141 250.93505859 191.16162109 C251.71345174 193.08471005 252.50509421 195.00242332 253.29833984 196.91943359 C257.19658541 207.54529652 259.19344046 218.91744024 261.42333984 229.98193359 C261.62942871 231.002146 261.83551758 232.0223584 262.04785156 233.07348633 C262.65476407 236.1432429 263.23355902 239.21665724 263.79833984 242.29443359 C263.99032959 243.31674072 264.18231934 244.33904785 264.38012695 245.39233398 C265.8753263 254.04927801 266.15121011 262.59633416 266.11083984 271.35693359 C266.11067871 272.07721741 266.11051758 272.79750122 266.11035156 273.53961182 C266.09302896 284.71238048 265.0756843 295.41603158 263.11035156 306.41259766 C258.71026644 332.95082624 278.61318607 358.16448235 291.79833984 379.29443359 C292.66044356 380.68237707 293.52243514 382.07039021 294.38427734 383.45849609 C296.37191796 386.65210257 298.37003705 389.83901933 300.37158203 393.02392578 C305.28713131 400.8464118 310.18965026 408.67687528 315.06982422 416.52148438 C316.14813384 418.25134888 317.22962258 419.97924065 318.31591797 421.70410156 C319.59072828 423.72829361 320.85266494 425.75987595 322.11083984 427.79443359 C322.78759766 428.87724609 323.46435547 429.96005859 324.16162109 431.07568359 C327.83796774 438.30553952 328.9625598 446.26131589 327.79833984 454.29443359 C324.8110547 461.99786577 318.91249989 465.70301425 311.79833984 469.29443359 C307.42110115 471.03305014 302.97263302 472.49100598 298.48583984 473.91943359 C296.19494974 474.65190377 293.90703893 475.393773 291.62255859 476.14599609 C290.62313232 476.46391113 289.62370605 476.78182617 288.59399414 477.109375 C284.32118189 478.92059067 281.43787884 480.90750435 279.47802734 485.15771484 C277.26475937 495.37181934 280.54114786 505.17344707 284.76318359 514.40380859 C287.13176437 519.86136799 287.20457433 524.50348186 285.79833984 530.29443359 C283.17321306 535.64969224 278.6856284 539.90243456 273.79833984 543.29443359 C272.80833984 543.29443359 271.81833984 543.29443359 270.79833984 543.29443359 C272.74020322 546.77318395 272.74020322 546.77318395 275.36083984 549.73193359 C279.14791582 553.84832052 279.24234435 559.45796242 279.10693359 564.77880859 C278.24931091 571.77006187 274.07922098 576.20638266 269.47802734 581.21240234 C262.80975248 589.47796166 262.19564637 599.09886892 262.79833984 609.29443359 C263.22011831 612.47500158 263.7537701 615.63285133 264.29833984 618.79443359 C267.10544373 635.36092152 266.65691826 650.9871996 256.79833984 665.29443359 C246.55573584 677.98204629 231.57727787 683.44812939 215.79833984 685.29443359 C210.67161727 685.56458922 205.55545744 685.58223644 200.42333984 685.54443359 C199.72014618 685.54266113 199.01695251 685.54088867 198.29244995 685.5390625 C189.76846635 685.5140171 181.34002383 685.23190926 172.86083984 684.29443359 C140.09962723 680.43503162 140.09962723 680.43503162 109.84912109 690.31396484 C90.60482699 706.35555891 86.17375619 734.9629016 82.17333984 758.41943359 C81.94972275 759.71318909 81.94972275 759.71318909 81.72158813 761.03308105 C77.77455524 784.0213004 75.97796329 807.0084147 74.72412109 830.27880859 C74.63332705 831.94141436 74.54238538 833.60401207 74.45129395 835.26660156 C74.23194902 839.27578855 74.01457302 843.28507762 73.79833984 847.29443359 C34.31549199 847.31737307 -5.16735498 847.33496888 -44.65020818 847.34549892 C-49.32222539 847.34674948 -53.99424258 847.34804382 -58.66625977 847.34936523 C-59.59628905 847.34962754 -60.52631833 847.34988986 -61.48453032 847.35016011 C-76.50043512 847.35449944 -91.51633604 847.36237736 -106.53223855 847.37158639 C-121.96492873 847.38097138 -137.39761689 847.38649942 -152.83030981 847.38852209 C-162.33636278 847.38988729 -171.84240481 847.39418312 -181.34845441 847.40235006 C-187.88639517 847.40767742 -194.42433036 847.40922442 -200.96227313 847.40793497 C-204.72199966 847.40730086 -208.48170722 847.40820208 -212.24143028 847.41363907 C-225.48963208 847.43169603 -238.73281028 847.42172737 -251.97312927 846.91233826 C-252.85806126 846.88192163 -253.74299324 846.85150499 -254.65474135 846.82016665 C-260.95901605 846.53347499 -267.02091981 845.55004855 -273.20166016 844.29443359 C-272.6305913 840.08590443 -271.6447562 836.55926817 -269.95166016 832.66943359 C-269.50306641 831.62529297 -269.05447266 830.58115234 -268.59228516 829.50537109 C-268.13337891 828.44576172 -267.67447266 827.38615234 -267.20166016 826.29443359 C-266.36502763 824.29581145 -265.53163536 822.29582951 -264.70166016 820.29443359 C-263.47213196 817.33743744 -262.23907858 814.38250527 -260.98681641 811.43505859 C-256.00238127 799.65077105 -251.63720222 787.63768674 -247.37744141 775.57568359 C-246.55413537 773.27808535 -245.70130503 770.99095163 -244.82666016 768.71240234 C-240.8249888 758.07594718 -237.61115535 747.13077824 -234.20166016 736.29443359 C-233.7535498 734.89040283 -233.7535498 734.89040283 -233.29638672 733.45800781 C-229.66470372 721.99729668 -227.10445058 710.41219023 -224.88916016 698.60693359 C-224.7597403 697.91893677 -224.63032043 697.23093994 -224.49697876 696.52209473 C-222.33438829 684.91812018 -221.04689772 673.68968221 -221.03369141 661.88037109 C-221.03036301 660.82588776 -221.02703461 659.77140442 -221.02360535 658.68496704 C-221.01857507 656.47146029 -221.0161958 654.25794606 -221.01635742 652.04443359 C-221.01416177 648.67191107 -220.99593933 645.29971134 -220.97705078 641.92724609 C-220.9741178 639.76578887 -220.97213237 637.6043301 -220.97119141 635.44287109 C-220.96041313 633.94413956 -220.96041313 633.94413956 -220.94941711 632.41513062 C-220.96805164 626.67246439 -221.59867549 621.80888479 -223.20166016 616.29443359 C-223.58344319 614.04557461 -223.95839078 611.79554502 -224.32666016 609.54443359 C-228.65249261 586.52430005 -241.5692858 564.9745528 -255.20166016 546.29443359 C-255.75934082 545.52566895 -256.31702148 544.7569043 -256.89160156 543.96484375 C-262.57719679 536.1394915 -268.33492299 528.37448929 -274.26416016 520.73193359 C-284.12438047 507.98974412 -293.51469516 494.86572551 -302.20166016 481.29443359 C-302.74137451 480.45259521 -302.74137451 480.45259521 -303.29199219 479.59375 C-311.09571158 467.29514522 -317.59385325 454.26004105 -324.20166016 441.29443359 C-324.59264893 440.5401709 -324.9836377 439.7859082 -325.38647461 439.00878906 C-327.51526144 434.85897682 -329.24219715 430.7146562 -330.76416016 426.29443359 C-332.0276438 422.6489726 -333.30029792 419.01515028 -334.67822266 415.41162109 C-342.07469757 395.77246133 -347.47856376 374.48004529 -349.87744141 353.63818359 C-350.07637128 351.27798375 -350.07637128 351.27798375 -351.20166016 349.29443359 C-352.82231822 339.31939737 -352.3595871 328.99160008 -352.32666016 318.91943359 C-352.32444458 318.02504578 -352.322229 317.13065796 -352.31994629 316.20916748 C-352.25564557 294.11989335 -351.04485204 273.09782023 -347.20166016 251.29443359 C-347.03762695 250.36115234 -346.87359375 249.42787109 -346.70458984 248.46630859 C-344.22995128 234.6768766 -340.90013656 221.23545325 -335.90014648 208.12939453 C-335.0060094 205.78044858 -334.16820042 203.41266195 -333.32666016 201.04443359 C-330.38139164 192.93932443 -327.11997064 185.02738593 -323.22802734 177.33178711 C-322.2714596 175.43298649 -321.33796526 173.52499508 -320.41259766 171.61083984 C-310.01683394 150.25340257 -297.40437279 130.02359058 -281.68994141 112.14990234 C-279.38957827 109.51008216 -277.23258193 106.80219969 -275.07666016 104.04443359 C-270.898611 98.90686863 -266.31732979 94.22764762 -261.63916016 89.54443359 C-260.93065918 88.83512695 -260.2221582 88.12582031 -259.4921875 87.39501953 C-254.88450251 82.83538688 -250.12654335 78.50781125 -245.20166016 74.29443359 C-244.64325439 73.80797363 -244.08484863 73.32151367 -243.50952148 72.8203125 C-178.0020368 16.08031758 -85.50299014 -9.47389193 0 0 Z " fill="#113559" transform="translate(637.20166015625,247.70556640625)"/>
<path d="M0 0 C1.39454407 0.00081573 1.39454407 0.00081573 2.81726074 0.00164795 C17.09482043 0.04003014 30.67420989 0.83023467 44.5625 4.375 C45.50448242 4.60525879 46.44646484 4.83551758 47.41699219 5.07275391 C77.93169157 12.60294536 109.0895435 26.10396039 130.62792969 49.81958008 C137.19464538 56.93948234 144.21619161 60.43442562 153.01171875 64.30859375 C181.96676022 77.12651806 203.27423266 105.3813692 215.02734375 133.93359375 C226.43804786 164.48930902 226.36799695 195.91750705 216.13793945 226.78540039 C213.38693348 235.2974381 214.99911476 241.96707479 217.3125 250.3125 C217.86386995 252.36182087 218.41464826 254.41130101 218.96484375 256.4609375 C219.2366748 257.46350586 219.50850586 258.46607422 219.78857422 259.49902344 C220.85685074 263.46883335 221.87602915 267.4497656 222.875 271.4375 C223.18050781 272.64535156 223.48601562 273.85320312 223.80078125 275.09765625 C228.15214408 293.81967375 226.52341787 315.67598553 222.5625 334.375 C222.30726563 335.633125 222.05203125 336.89125 221.7890625 338.1875 C216.84674311 359.22636419 206.52560008 378.03059603 192.5625 394.375 C191.87671875 395.19484375 191.1909375 396.0146875 190.484375 396.859375 C177.21226177 412.23211047 160.84532178 422.4110593 142.46386719 430.52001953 C140.8558578 431.24308693 139.27227683 432.02011158 137.6953125 432.80859375 C119.55590224 441.44768973 97.46454273 442.51480231 77.7109375 442.8046875 C66.23163009 443.0940818 54.95466189 443.9958725 45.25 450.5625 C37.95752253 455.28007878 30.39453444 458.9902265 22.46972656 462.52441406 C20.81557903 463.26213168 19.1687955 464.01631904 17.5234375 464.7734375 C11.41754433 467.47379026 5.21330339 469.40222771 -1.1875 471.25 C-29.74262267 479.54511859 -54.54107632 496.24185354 -69.60742188 522.40673828 C-72.06813615 526.97616625 -74.28164637 531.65559203 -76.4375 536.375 C-76.98148438 537.55707031 -77.52546875 538.73914063 -78.0859375 539.95703125 C-79.08066331 542.12573549 -80.07423361 544.29497026 -81.06640625 546.46484375 C-87.93260763 561.03840509 -87.93260763 561.03840509 -94.4375 565.375 C-95.7575 565.375 -97.0775 565.375 -98.4375 565.375 C-98.36966309 564.70855469 -98.30182617 564.04210937 -98.23193359 563.35546875 C-96.08982132 541.27820352 -95.51856427 517.15902228 -110.375 499.0078125 C-111.59519704 497.62525053 -112.83980932 496.2635048 -114.1171875 494.93359375 C-115.4375 493.375 -115.4375 493.375 -115.4375 491.375 C-116.02273438 491.11203125 -116.60796875 490.8490625 -117.2109375 490.578125 C-119.53725681 489.32109632 -121.14480492 487.93660982 -123.0625 486.125 C-134.79170792 475.74916222 -149.12645705 471.21669079 -164.125 467.8125 C-188.0705571 462.37373446 -210.36273491 451.21224988 -224.4375 430.375 C-227.0868591 425.85928037 -229.34471835 421.17321699 -231.4375 416.375 C-231.98792969 415.24707031 -232.53835938 414.11914062 -233.10546875 412.95703125 C-235.71695108 405.85567684 -234.8791277 397.53935449 -234.87329102 390.06005859 C-234.87687551 387.93278139 -234.90424522 385.80674249 -234.93359375 383.6796875 C-234.93637329 381.7922583 -234.93637329 381.7922583 -234.93920898 379.86669922 C-235.52824619 375.73910972 -236.90438873 373.64467325 -239.4375 370.375 C-239.88915527 369.77848633 -240.34081055 369.18197266 -240.80615234 368.56738281 C-241.20785645 368.07592773 -241.60956055 367.58447266 -242.0234375 367.078125 C-242.702854 366.23664917 -242.702854 366.23664917 -243.39599609 365.37817383 C-243.86344238 364.79962646 -244.33088867 364.2210791 -244.8125 363.625 C-249.18520567 358.1211227 -253.15140582 352.61145737 -256.4375 346.375 C-256.86417969 345.57449219 -257.29085938 344.77398438 -257.73046875 343.94921875 C-264.29661542 330.63509365 -267.62759926 315.83365034 -267.5625 301.0625 C-267.56419189 300.09280273 -267.56588379 299.12310547 -267.56762695 298.12402344 C-267.5514405 292.79911805 -267.32587404 287.56613363 -266.82275391 282.26660156 C-266.08291526 274.25442305 -267.10368813 269.23581588 -271.4375 262.375 C-274.10785152 256.57620318 -275.2948657 250.62140086 -276.4375 244.375 C-276.60145264 243.66907715 -276.76540527 242.9631543 -276.93432617 242.23583984 C-278.40483018 235.67372388 -278.70910229 229.46047774 -278.625 222.75 C-278.62435547 221.76515625 -278.62371094 220.7803125 -278.62304688 219.765625 C-278.53881955 205.72773733 -278.53881955 205.72773733 -276.125 199.1875 C-275.2076114 196.62754896 -274.36067567 194.09828325 -273.6328125 191.4765625 C-267.589877 169.81825387 -253.67752446 147.51517766 -234.50683594 135.12744141 C-228.74894645 131.28044984 -226.78453497 127.79434078 -224.8125 121.25 C-224.23925115 119.54522757 -223.66112126 117.84208868 -223.078125 116.140625 C-222.80162109 115.32013672 -222.52511719 114.49964844 -222.24023438 113.65429688 C-217.21621085 99.38900381 -207.78182486 87.18612652 -197.4375 76.375 C-196.82648438 75.70082031 -196.21546875 75.02664063 -195.5859375 74.33203125 C-175.63525262 53.06545014 -146.33764374 41.6250696 -117.875 38.5 C-111.28654355 37.610483 -107.6053563 35.38710569 -102.4375 31.375 C-81.92024842 16.7198203 -59.3279761 6.89065487 -34.4375 2.375 C-33.47932373 2.19839844 -32.52114746 2.02179688 -31.53393555 1.83984375 C-21.02812043 0.11290269 -10.62491955 -0.02338418 0 0 Z " fill="#FBF8F4" transform="translate(613.4375,294.625)"/>
<path d="M0 0 C5.35401821 3.92274601 8.37600212 9.03273411 9.97265625 15.4453125 C9.97265625 16.7653125 9.97265625 18.0853125 9.97265625 19.4453125 C10.83246094 19.47109375 11.69226563 19.496875 12.578125 19.5234375 C30.14288411 20.36623946 44.23304206 26.46226679 58.01171875 37.203125 C61.70043625 39.99642822 65.55406142 42.42942878 69.5 44.83984375 C76.75841866 49.55265586 76.75841866 49.55265586 77.72265625 53.5703125 C76.03819504 62.27336209 69.14046789 69.52057478 61.97265625 74.4453125 C55.76952132 77.93684313 50.08421651 80.04277135 42.97265625 80.4453125 C42.97265625 81.1053125 42.97265625 81.7653125 42.97265625 82.4453125 C41.91046875 82.67605469 40.84828125 82.90679688 39.75390625 83.14453125 C24.56418539 86.59045563 17.07637837 92.10348891 7.64453125 104.7265625 C5.926603 107.52020284 5.09479478 109.17810677 4.97265625 112.4453125 C6.03333867 115.30873691 6.03333867 115.30873691 7.72265625 118.0703125 C8.25375 119.01132812 8.78484375 119.95234375 9.33203125 120.921875 C11.29156637 124.04091516 11.29156637 124.04091516 13.97265625 126.4453125 C17.22244053 127.13518011 17.22244053 127.13518011 20.84765625 127.4453125 C25.63180487 127.93286905 29.13558113 128.41828657 32.97265625 131.4453125 C33.84765625 135.0703125 33.84765625 135.0703125 33.97265625 138.4453125 C31.22536721 141.19260154 23.04232356 139.73024036 19.34765625 139.7578125 C18.07535156 139.78681641 16.80304688 139.81582031 15.4921875 139.84570312 C8.34313447 139.89415865 3.7233831 139.80102432 -2.02734375 135.4453125 C-3.15863458 134.63250679 -4.29015122 133.82001528 -5.421875 133.0078125 C-6.56133762 132.15383221 -7.70065773 131.29966174 -8.83984375 130.4453125 C-19.75685209 122.45310106 -30.41273728 119.22080352 -44.02734375 120.4453125 C-46.57018273 121.25256297 -48.77760671 122.21560687 -51.125 123.47265625 C-53.07970863 124.47208633 -54.88620312 124.9922872 -57.02734375 125.4453125 C-57.02734375 126.1053125 -57.02734375 126.7653125 -57.02734375 127.4453125 C-56.21910156 127.41050781 -55.41085937 127.37570312 -54.578125 127.33984375 C-53.50949219 127.31277344 -52.44085938 127.28570313 -51.33984375 127.2578125 C-50.28410156 127.22300781 -49.22835937 127.18820312 -48.140625 127.15234375 C-43.68657747 127.57148248 -41.14233021 129.33032604 -38.02734375 132.4453125 C-37.83984375 135.5078125 -37.83984375 135.5078125 -38.02734375 138.4453125 C-39.92340513 140.34137388 -43.25792984 139.59304077 -45.77514648 139.60644531 C-46.4809938 139.61141022 -47.18684113 139.61637512 -47.91407776 139.62149048 C-50.26304079 139.63616135 -52.61193606 139.64292608 -54.9609375 139.6484375 C-56.59465029 139.65418975 -58.22836306 139.65994748 -59.86207581 139.66571045 C-63.29794632 139.67623771 -66.73379335 139.68206747 -70.16967773 139.68554688 C-74.55080188 139.69100194 -78.93161054 139.71495786 -83.31263638 139.74351883 C-86.69378017 139.76225141 -90.07485006 139.76735666 -93.45604134 139.76888275 C-95.06941494 139.77189148 -96.68278781 139.7798592 -98.29611015 139.79306793 C-106.92780101 139.85862866 -114.89032016 139.7544758 -123.02734375 136.4453125 C-123.02734375 135.7853125 -123.02734375 135.1253125 -123.02734375 134.4453125 C-129.60800941 136.61757107 -134.48968203 138.28293402 -138.02734375 144.4453125 C-139.51967319 150.03920148 -139.5475463 155.25155482 -137.15625 160.5703125 C-131.84766795 169.38733458 -123.15768929 173.4977481 -113.49687195 176.0395813 C-103.87246408 178.40177379 -94.67750884 179.02322797 -84.79046631 179.05895996 C-80.3960828 179.07832903 -76.0029643 179.16822353 -71.609375 179.25 C-70.76193726 179.26446167 -69.91449951 179.27892334 -69.04138184 179.29382324 C-49.29167922 179.65305035 -30.4148667 181.4885172 -14.98046875 195.2734375 C-13.39856194 196.94242175 -12.11427793 198.42053689 -11.02734375 200.4453125 C-11.15234375 203.3828125 -11.15234375 203.3828125 -12.02734375 205.4453125 C-16.54674654 204.92880932 -18.52890964 203.24405979 -22.02734375 200.4453125 C-33.46082454 193.47367787 -45.58917281 192.00584519 -58.75390625 192.07421875 C-61.35937627 192.05683019 -63.96484499 192.03924588 -66.5703125 192.02148438 C-70.60465724 192.00849675 -74.63897883 192.00780348 -78.67333984 192.00952148 C-128.01522729 191.96424262 -128.01522729 191.96424262 -145.9296875 174.6015625 C-153.59520643 166.43365227 -156.43489013 157.58963432 -156.30078125 146.5390625 C-155.57090256 138.2810065 -150.67756433 131.29934865 -145.02734375 125.4453125 C-142.47438079 123.527237 -139.86234674 121.91067768 -137.02734375 120.4453125 C-137.16996787 118.8825163 -137.31659886 117.32008554 -137.46484375 115.7578125 C-137.54605469 114.88769531 -137.62726563 114.01757812 -137.7109375 113.12109375 C-137.97527901 110.49534356 -137.97527901 110.49534356 -138.5390625 108.15625 C-141.91120877 89.43409391 -136.94489237 69.63234784 -126.37109375 53.99609375 C-124.6732252 51.72326516 -122.89862121 49.57704614 -121.02734375 47.4453125 C-120.17076172 46.44757812 -120.17076172 46.44757812 -119.296875 45.4296875 C-108.67646852 33.92613421 -93.98344328 25.73515423 -78.3046875 25.04296875 C-64.5627797 24.76161698 -52.60802947 25.29834107 -39.90234375 30.9453125 C-35.00556817 33.0612821 -30.1117769 34.835242 -25.02734375 36.4453125 C-26.17203125 35.300625 -26.17203125 35.300625 -27.33984375 34.1328125 C-28.67015625 32.8025 -28.67015625 32.8025 -30.02734375 31.4453125 C-30.54296875 30.97222656 -31.05859375 30.49914062 -31.58984375 30.01171875 C-34.88098396 26.42544912 -35.89622685 21.66907027 -36.40234375 16.9453125 C-35.63862826 9.81730126 -33.37307565 4.8124977 -28.0390625 -0.07421875 C-19.25261714 -6.5403601 -8.96512144 -5.53402558 0 0 Z " fill="#113457" transform="translate(548.02734375,546.5546875)"/>
<path d="M0 0 C5.05826658 3.17381432 8.65550348 7.33565823 11.625 12.5 C13.28173694 19.86327529 12.19724609 25.65503246 8.1875 32 C5.2068585 35.70430686 2.3123473 38.72033483 -2.54296875 39.359375 C-3.51878906 39.44703125 -4.49460937 39.5346875 -5.5 39.625 C-10.16527748 40.60131747 -12.26886351 42.21129622 -14.9453125 46.00390625 C-17.84142096 50.55295273 -20.46947706 55.2530475 -23.08984375 59.96484375 C-25.93462205 64.97707219 -29.04014815 69.82079008 -32.125 74.6875 C-37.46324915 83.20074099 -42.7432663 91.74873675 -48 100.3125 C-52.81323783 108.151135 -57.65041682 115.97285501 -62.5625 123.75 C-63.03969482 124.50579346 -63.51688965 125.26158691 -64.00854492 126.0402832 C-66.00376043 129.18870659 -68.01882169 132.30523646 -70.14453125 135.3671875 C-72.038077 137.81522311 -72.038077 137.81522311 -71.75 140.375 C-71.00498845 142.46103234 -70.15576956 144.50978259 -69.2722168 146.54101562 C-67.4622059 151.38308473 -67.42876545 155.84774833 -67.51953125 160.96875 C-67.52255249 161.78633789 -67.52557373 162.60392578 -67.52868652 163.44628906 C-67.54423618 166.46432341 -67.58611879 169.48217605 -67.625 172.5 C-67.686875 179.265 -67.74875 186.03 -67.8125 193 C-52.6325 193 -37.4525 193 -21.8125 193 C-21.4825 191.35 -21.1525 189.7 -20.8125 188 C-18.8125 186 -18.8125 186 -16.4907074 185.75276184 C-15.52109573 185.75418686 -14.55148407 185.75561188 -13.55249023 185.75708008 C-12.45472763 185.75400345 -11.35696503 185.75092682 -10.22593689 185.74775696 C-9.03633865 185.75494247 -7.84674042 185.76212799 -6.62109375 185.76953125 C-4.7977224 185.77021858 -4.7977224 185.77021858 -2.93751526 185.7709198 C-0.36433945 185.77394504 2.20883448 185.78183937 4.78198242 185.79418945 C8.73688184 185.81243947 12.69154727 185.81469925 16.64648438 185.81445312 C19.14062704 185.81936831 21.63476811 185.82519664 24.12890625 185.83203125 C25.32052872 185.83314407 26.51215118 185.8342569 27.73988342 185.83540344 C29.38179909 185.84497322 29.38179909 185.84497322 31.05688477 185.85473633 C32.51010887 185.86045403 32.51010887 185.86045403 33.99269104 185.86628723 C36.1875 186 36.1875 186 37.1875 187 C37.28649523 188.54955559 37.31829524 190.10353673 37.3203125 191.65625 C37.32160156 192.59597656 37.32289063 193.53570313 37.32421875 194.50390625 C37.32035156 195.49261719 37.31648437 196.48132813 37.3125 197.5 C37.31636719 198.48871094 37.32023438 199.47742188 37.32421875 200.49609375 C37.32228516 201.90568359 37.32228516 201.90568359 37.3203125 203.34375 C37.31862061 204.64602539 37.31862061 204.64602539 37.31689453 205.97460938 C37.1875 208 37.1875 208 36.1875 209 C33.83692792 209.09984374 31.51568473 209.13442764 29.16455078 209.12698364 C28.42119539 209.12854363 27.67784 209.13010362 26.91195869 209.13171089 C24.40222358 209.13572364 21.89254815 209.13253019 19.3828125 209.12939453 C17.59120651 209.13074845 15.79960079 209.13252833 14.00799561 209.13470459 C9.12797112 209.13928004 4.24796768 209.13748891 -0.63205719 209.1343255 C-5.72719888 209.13180248 -10.82233871 209.13413928 -15.91748047 209.13571167 C-24.47558924 209.13753353 -33.03368941 209.13512662 -41.59179688 209.13037109 C-51.50121438 209.12492844 -61.4106113 209.12669109 -71.32002831 209.1321975 C-79.81171533 209.13672815 -88.30339615 209.13737941 -96.795084 209.13475883 C-101.87395185 209.13319579 -106.95281001 209.13300302 -112.03167725 209.13629532 C-116.80533567 209.13917334 -121.57896745 209.13719962 -126.35262299 209.13140106 C-128.1098908 209.13007309 -129.86716085 209.1304682 -131.6244278 209.13266373 C-134.01283293 209.1353738 -136.40115126 209.13199589 -138.78955078 209.12698364 C-139.49410841 209.12921436 -140.19866604 209.13144509 -140.9245739 209.13374341 C-145.69835014 209.11414986 -145.69835014 209.11414986 -146.8125 208 C-146.93787741 205.85692104 -146.98824364 203.70921114 -147 201.5625 C-147.01417969 200.38816406 -147.02835938 199.21382812 -147.04296875 198.00390625 C-146.8125 195 -146.8125 195 -144.8125 193 C-142.65771484 192.77294922 -142.65771484 192.77294922 -140.0234375 192.8046875 C-139.08242188 192.81113281 -138.14140625 192.81757812 -137.171875 192.82421875 C-136.18703125 192.84097656 -135.2021875 192.85773438 -134.1875 192.875 C-133.19492187 192.88402344 -132.20234375 192.89304687 -131.1796875 192.90234375 C-128.72371866 192.92595884 -126.26822832 192.95889201 -123.8125 193 C-123.83868408 191.68394775 -123.86486816 190.36789551 -123.8918457 189.01196289 C-123.98281009 184.09758719 -124.039917 179.18328491 -124.0871582 174.26831055 C-124.11219737 172.1470892 -124.14623907 170.02595323 -124.18969727 167.9050293 C-124.25081672 164.84402322 -124.2788163 161.78416432 -124.30078125 158.72265625 C-124.32658768 157.78478775 -124.3523941 156.84691925 -124.37898254 155.88063049 C-124.38258254 147.2989673 -121.21641893 141.50385599 -115.5625 135.1875 C-111.70211588 131.65565921 -108.00263623 129.05369021 -102.8125 128 C-101.4749498 128.08100124 -100.13963866 128.20471024 -98.80859375 128.359375 C-92.2422815 129.15835969 -92.2422815 129.15835969 -85.8125 128 C-81.4749888 124.18998786 -79.30355482 118.4815024 -76.93652344 113.33398438 C-75.23076682 109.79205709 -73.1349798 106.54474281 -71 103.25 C-70.1622275 101.92303174 -69.3263386 100.59487271 -68.4921875 99.265625 C-68.0600293 98.57919922 -67.62787109 97.89277344 -67.18261719 97.18554688 C-64.64385372 93.1358301 -62.1368494 89.0664426 -59.625 85 C-54.74836261 77.11297543 -49.85080897 69.23923243 -44.9375 61.375 C-44.33139893 60.40433594 -43.72529785 59.43367187 -43.10083008 58.43359375 C-41.92759119 56.55718371 -40.74860094 54.68435568 -39.56347656 52.81542969 C-38.34677245 50.85906718 -37.16892397 48.87821854 -36.02246094 46.87988281 C-35.4349707 45.88053711 -34.84748047 44.88119141 -34.2421875 43.8515625 C-33.72640137 42.94486816 -33.21061523 42.03817383 -32.67919922 41.10400391 C-30.2371721 38.35153337 -28.40223503 38.25357813 -24.8125 38 C-25.22201726 34.62148257 -25.8857101 32.89573106 -27.875 30.0625 C-31.13790715 24.57214702 -30.75280827 18.12967874 -29.8125 12 C-27.45110888 6.89280526 -23.44520479 3.13020594 -18.8125 0 C-12.76934227 -2.01438591 -6.10316796 -1.60083094 0 0 Z " fill="#123356" transform="translate(770.8125,464)"/>
<path d="M0 0 C1.28154213 -0.00956978 1.28154213 -0.00956978 2.588974 -0.01933289 C3.51811111 -0.02044571 4.44724823 -0.02155853 5.40454102 -0.02270508 C6.35281265 -0.02603348 7.30108429 -0.02936188 8.27809143 -0.03279114 C10.28809116 -0.03786452 12.29809934 -0.04019934 14.30810547 -0.04003906 C17.39182346 -0.04222455 20.47518333 -0.06037316 23.55883789 -0.0793457 C25.50740437 -0.08227967 27.45597256 -0.08426444 29.40454102 -0.08520508 C30.79521034 -0.09598335 30.79521034 -0.09598335 32.213974 -0.10697937 C33.07148758 -0.10390274 33.92900116 -0.10082611 34.8125 -0.09765625 C35.56893295 -0.09908127 36.32536591 -0.10050629 37.10472107 -0.10197449 C38.97094727 0.14526367 38.97094727 0.14526367 40.97094727 2.14526367 C41.21983624 4.80925846 41.21983624 4.80925846 41.21818542 8.26344299 C41.22237991 9.56894104 41.2265744 10.87443909 41.230896 12.21949768 C41.2254121 13.67465284 41.21972911 15.12980725 41.21386719 16.58496094 C41.2149396 18.11070843 41.21687768 19.63645552 41.21961975 21.16220093 C41.22447733 25.31288374 41.21680139 29.46345945 41.20666671 33.6141293 C41.19790242 37.94985924 41.19964333 42.28558565 41.20002747 46.62132263 C41.19909017 53.90235188 41.19039694 61.18333952 41.17675781 68.46435547 C41.16102571 76.89406048 41.15575987 85.3237199 41.15649337 93.75343853 C41.15710276 101.84898296 41.15200582 109.94451246 41.14370155 118.04005241 C41.14016213 121.49180149 41.13833737 124.94354529 41.13780785 128.3952961 C41.1368066 132.45572083 41.13072801 136.51610699 41.12064171 140.57651901 C41.11770985 142.07093889 41.11649272 143.5653632 41.11706924 145.05978584 C41.11755656 147.09121738 41.11131093 149.12264729 41.10466003 151.15406799 C41.10298419 152.29357186 41.10130835 153.43307573 41.09958172 154.60711002 C40.97094727 157.14526367 40.97094727 157.14526367 39.97094727 158.14526367 C38.55869681 158.23813628 37.14185792 158.26273139 35.7265625 158.25878906 C34.82570419 158.25871353 33.92484589 158.258638 32.99668884 158.25856018 C32.01753006 158.2533989 31.03837128 158.24823761 30.02954102 158.24291992 C29.03213394 158.24150497 28.03472687 158.24009003 27.00709534 158.2386322 C23.80751603 158.23301481 20.60800558 158.22045938 17.40844727 158.20776367 C15.24503681 158.20275091 13.08162527 158.19818762 10.91821289 158.1940918 C5.60243401 158.18303974 0.28669556 158.16628471 -5.02905273 158.14526367 C-5.05237999 137.69227893 -5.07003105 117.23929688 -5.08086491 96.78630161 C-5.08602823 87.29030984 -5.09307163 77.79432632 -5.10449219 68.29833984 C-5.11443791 60.02473522 -5.12090589 51.75113657 -5.12314123 43.47752613 C-5.12444853 39.09392777 -5.12753558 34.71034651 -5.13478279 30.32675362 C-5.14154124 26.20562867 -5.14367006 22.08452794 -5.14216042 17.96339798 C-5.14243682 16.44640026 -5.14444298 14.92940178 -5.14825821 13.41240883 C-5.15319274 11.35019066 -5.15205194 9.28806541 -5.14930725 7.22584534 C-5.15022904 6.06899514 -5.15115084 4.91214495 -5.15210056 3.72023869 C-4.95604087 -0.38262771 -3.70743074 0.01870206 0 0 Z " fill="#8276B4" transform="translate(581.029052734375,353.854736328125)"/>
<path d="M0 0 C0.83426514 -0.00630432 1.66853027 -0.01260864 2.52807617 -0.019104 C3.43017822 -0.01505554 4.33228027 -0.01100708 5.26171875 -0.00683594 C6.64870972 -0.00970612 6.64870972 -0.00970612 8.0637207 -0.01263428 C10.02067334 -0.0139966 11.97763499 -0.0102969 13.93457031 -0.00195312 C16.93705465 0.00874572 19.93894062 -0.00184685 22.94140625 -0.01464844 C24.83984508 -0.01332685 26.73828353 -0.01076448 28.63671875 -0.00683594 C29.5388208 -0.0108844 30.44092285 -0.01493286 31.37036133 -0.019104 C32.62175903 -0.00964752 32.62175903 -0.00964752 33.8984375 0 C34.63408936 0.00159119 35.36974121 0.00318237 36.12768555 0.00482178 C37.94921875 0.25878906 37.94921875 0.25878906 39.94921875 2.25878906 C40.19810772 4.22000217 40.19810772 4.22000217 40.19645691 6.66859436 C40.2006514 7.59545547 40.20484589 8.52231659 40.20916748 9.4772644 C40.20354797 10.49708405 40.19792847 11.51690369 40.19213867 12.56762695 C40.19403702 13.63920547 40.19593536 14.710784 40.19789124 15.81483459 C40.20160757 19.37044502 40.19088322 22.92585293 40.1796875 26.48144531 C40.17849616 28.94241817 40.17804244 31.40339149 40.17829895 33.86436462 C40.17673264 39.02687417 40.16843119 44.18931451 40.1550293 49.35180664 C40.13803037 55.98576502 40.13421512 62.61964731 40.13497448 69.25362492 C40.13470322 74.33634677 40.12922922 79.41905183 40.12197304 84.50176811 C40.11877985 86.94872345 40.11681746 89.3956807 40.11607933 91.84263802 C40.11392314 95.25490726 40.10519484 98.66709403 40.09448242 102.0793457 C40.09493561 103.10118958 40.09538879 104.12303345 40.09585571 105.17584229 C40.09159073 106.09988358 40.08732574 107.02392487 40.08293152 107.97596741 C40.08125567 108.7836258 40.07957983 109.5912842 40.0778532 110.42341709 C39.94921875 112.25878906 39.94921875 112.25878906 38.94921875 113.25878906 C37.57311993 113.35674218 36.19207993 113.38676994 34.8125 113.38818359 C33.49608521 113.39291183 33.49608521 113.39291183 32.15307617 113.3977356 C31.19892822 113.39571136 30.24478027 113.39368713 29.26171875 113.39160156 C27.80245972 113.39303665 27.80245972 113.39303665 26.3137207 113.39450073 C24.25244075 113.39518265 22.19115867 113.39332759 20.12988281 113.38916016 C16.96284187 113.38381207 13.79594275 113.38910478 10.62890625 113.39550781 C8.6315101 113.39484703 6.63411404 113.39356587 4.63671875 113.39160156 C3.6825708 113.39362579 2.72842285 113.39565002 1.74536133 113.3977356 C0.86775146 113.39458344 -0.0098584 113.39143127 -0.9140625 113.38818359 C-1.69048096 113.387388 -2.46689941 113.38659241 -3.2668457 113.38577271 C-5.05078125 113.25878906 -5.05078125 113.25878906 -6.05078125 112.25878906 C-6.15064077 110.83398135 -6.18153038 109.40426715 -6.18449402 107.97596741 C-6.188759 107.05192612 -6.19302399 106.12788483 -6.19741821 105.17584229 C-6.19696503 104.15399841 -6.19651184 103.13215454 -6.19604492 102.0793457 C-6.19940353 101.0095195 -6.20276215 99.9396933 -6.20622253 98.83744812 C-6.21576497 95.28126889 -6.21767727 91.72513657 -6.21875 88.16894531 C-6.22196022 85.7089384 -6.22532411 83.24893168 -6.22883606 80.78892517 C-6.23483553 75.6246598 -6.23667512 70.46041119 -6.23608398 65.29614258 C-6.2359823 58.66334989 -6.24963745 52.0306641 -6.26685619 45.39789677 C-6.27794876 40.3151347 -6.28000404 35.23239871 -6.27947426 30.14962578 C-6.28065842 27.70349191 -6.28510436 25.25735746 -6.29280663 22.81123543 C-6.30255155 19.39662206 -6.29975031 15.98224371 -6.29370117 12.56762695 C-6.29932068 11.54780731 -6.30494019 10.52798767 -6.31072998 9.4772644 C-6.30653549 8.55040329 -6.302341 7.62354218 -6.29801941 6.66859436 C-6.29856418 5.86055894 -6.29910894 5.05252352 -6.29967022 4.22000217 C-5.79333057 0.23011076 -3.47066413 0.00750691 0 0 Z " fill="#3B73A1" transform="translate(515.05078125,398.7412109375)"/>
<path d="M0 0 C0.75643295 0.00142502 1.51286591 0.00285004 2.29222107 0.00431824 C3.57849144 -0.00029671 3.57849144 -0.00029671 4.89074707 -0.00500488 C5.81785995 0.00218063 6.74497284 0.00936615 7.70018005 0.01676941 C8.64940842 0.01722763 9.59863678 0.01768585 10.57662964 0.01815796 C12.58486683 0.02118178 14.59310164 0.02907192 16.6013031 0.04142761 C19.68708029 0.05968377 22.77255763 0.06193734 25.85838318 0.06169128 C27.80565142 0.06660633 29.75291761 0.07243459 31.70018005 0.07926941 C33.09388573 0.08093864 33.09388573 0.08093864 34.51574707 0.0826416 C35.37010849 0.08902145 36.22446991 0.09540131 37.10472107 0.10197449 C37.86035843 0.10578629 38.61599579 0.10959808 39.39453125 0.11352539 C41.1337738 0.24723816 41.1337738 0.24723816 42.1337738 1.24723816 C42.22799121 3.36405133 42.25120141 5.48404574 42.24729919 7.60295105 C42.24744522 8.26633987 42.24759125 8.9297287 42.2477417 9.61322021 C42.24704261 11.81547771 42.23925045 14.01765161 42.23143005 16.21989441 C42.22956586 17.74304152 42.22814196 19.26618923 42.22714233 20.78933716 C42.22331727 24.80561467 42.21348708 28.82185624 42.20243835 32.83811951 C42.19222399 36.93347182 42.18764466 41.02882992 42.18260193 45.12419128 C42.1718648 53.16522344 42.15478852 61.20622633 42.1337738 69.24723816 C35.74340149 69.27250878 29.35304198 69.29007133 22.96263123 69.3021698 C20.78684508 69.30721124 18.61106234 69.31404423 16.43528748 69.32267761 C13.31524314 69.33475154 10.19524342 69.34046821 7.07518005 69.34489441 C5.60644188 69.35263634 5.60644188 69.35263634 4.10803223 69.36053467 C3.20717392 69.3606102 2.30631561 69.36068573 1.37815857 69.36076355 C0.18235924 69.36409447 0.18235924 69.36409447 -1.03759766 69.36749268 C-2.8662262 69.24723816 -2.8662262 69.24723816 -3.8662262 68.24723816 C-3.97088089 66.20254842 -4.00478663 64.15421262 -4.01148987 62.1068573 C-4.01786972 60.79201859 -4.02424957 59.47717987 -4.03082275 58.12249756 C-4.0323513 56.67579688 -4.03346533 55.22909571 -4.03419495 53.78239441 C-4.0374058 52.30887824 -4.04076973 50.8353624 -4.04428101 49.36184692 C-4.05027872 46.26903036 -4.05212025 43.17624177 -4.05152893 40.0834198 C-4.05142728 36.11410048 -4.0650794 32.14495994 -4.08230114 28.17568302 C-4.09340256 25.13113577 -4.09544871 22.08663199 -4.0949192 19.04206657 C-4.09610214 17.57839275 -4.10054136 16.11471791 -4.10825157 14.65106392 C-4.1180134 12.60640374 -4.11391908 10.56169146 -4.10914612 8.51701355 C-4.11057114 7.35198807 -4.11199615 6.18696259 -4.11346436 4.9866333 C-3.82935548 1.83871117 -3.3066247 0.43806255 0 0 Z " fill="#72ABA2" transform="translate(445.86622619628906,442.7527618408203)"/>
<path d="M0 0 C0.95970703 -0.02900391 1.91941406 -0.05800781 2.90820312 -0.08789062 C10.00409781 -0.15085761 15.41128251 1.00963229 20.84301758 5.76049805 C24.58219133 10.07680957 23.1875 14.42665302 23.1875 20.3125 C7.6775 20.3125 -7.8325 20.3125 -23.8125 20.3125 C-23.8125 9.3125 -23.8125 9.3125 -21.5 5.75 C-14.86223642 -0.2702972 -8.54491234 0.08505221 0 0 Z " fill="#75AEA4" transform="translate(779.8125,622.6875)"/>
<path d="M0 0 C2.67983956 1.67489973 3.62504169 2.84305627 4.59375 5.83203125 C5.40800561 9.92679744 5.1911754 11.63742597 3.1875 15.4375 C1.01384089 17.98378638 0.24572883 18.82868169 -2.98828125 19.2734375 C-7.27027177 19.46054969 -9.37508572 19.42962856 -13 16.9375 C-15.39441358 13.42070506 -16 11.24773336 -16 7 C-12.62847391 -0.80774464 -7.81579579 -2.06888712 0 0 Z " fill="#F4F3F1" transform="translate(680,612)"/>
<path d="M0 0 C0.33 0 0.66 0 1 0 C1 22.44 1 44.88 1 68 C-10.1065625 68.0309375 -10.1065625 68.0309375 -21.4375 68.0625 C-23.7777124 68.071604 -26.1179248 68.08070801 -28.52905273 68.09008789 C-30.37223249 68.09300694 -32.21541288 68.09555552 -34.05859375 68.09765625 C-35.02510864 68.10277222 -35.99162354 68.10788818 -36.98742676 68.11315918 C-37.90092896 68.11328003 -38.81443115 68.11340088 -39.75561523 68.11352539 C-40.95141457 68.11685631 -40.95141457 68.11685631 -42.17137146 68.12025452 C-44 68 -44 68 -45 67 C-45.09413687 64.94443339 -45.11742998 62.88559819 -45.11352539 60.82788086 C-45.11367142 60.18399918 -45.11381744 59.54011749 -45.1139679 58.87672424 C-45.11326885 56.73939697 -45.10547691 54.60215587 -45.09765625 52.46484375 C-45.09579204 50.98653715 -45.09436815 49.50822993 -45.09336853 48.02992249 C-45.08954359 44.13201198 -45.07971352 40.23413851 -45.06866455 36.33624268 C-45.05844992 32.36153667 -45.0538708 28.38682471 -45.04882812 24.41210938 C-45.03809122 16.608056 -45.02101509 8.80403318 -45 1 C-44.34 1 -43.68 1 -43 1 C-43 22.45 -43 43.9 -43 66 C-29.14 66 -15.28 66 -1 66 C-0.67 44.22 -0.34 22.44 0 0 Z " fill="#7DAFA7" transform="translate(487,444)"/>
<path d="M0 0 C3.37013879 0.67402776 4.51677007 1.7087875 6.5 4.5 C7.10975382 8.15852292 6.94543026 9.80512879 4.9375 12.9375 C2.5 14.5 2.5 14.5 -1.125 14.4375 C-4.5 13.5 -4.5 13.5 -6.5 10.5 C-6.96649698 6.84577364 -6.96996298 5.16142938 -4.8125 2.125 C-2.5 0.5 -2.5 0.5 0 0 Z " fill="#EDEEF0" transform="translate(577.5,585.5)"/>
<path d="M0 0 C0.33 0 0.66 0 1 0 C1 8.91 1 17.82 1 27 C0.67 27 0.34 27 0 27 C0 30.3 0 33.6 0 37 C0.33 37 0.66 37 1 37 C1 41.29 1 45.58 1 50 C0.34 50 -0.32 50 -1 50 C-1.9661617 42.63301703 -2.10995612 35.29351531 -2.125 27.875 C-2.12951172 26.9260083 -2.13402344 25.9770166 -2.13867188 24.99926758 C-2.13577148 23.66545044 -2.13577148 23.66545044 -2.1328125 22.3046875 C-2.13168457 21.50015137 -2.13055664 20.69561523 -2.12939453 19.86669922 C-2 18 -2 18 -1 17 C-0.76298761 14.14122091 -0.57780818 11.30116703 -0.4375 8.4375 C-0.39431641 7.63119141 -0.35113281 6.82488281 -0.30664062 5.99414062 C-0.20024738 3.99631195 -0.09959112 1.9981793 0 0 Z " fill="#2C4667" transform="translate(287,547)"/>
<path d="M0 0 C0.86931152 0.01047363 1.73862305 0.02094727 2.63427734 0.03173828 C3.57529297 0.03818359 4.51630859 0.04462891 5.48583984 0.05126953 C6.47068359 0.06802734 7.45552734 0.08478516 8.47021484 0.10205078 C9.46279297 0.11107422 10.45537109 0.12009766 11.47802734 0.12939453 C13.93399618 0.15300962 16.38948653 0.18594279 18.84521484 0.22705078 C18.84521484 0.55705078 18.84521484 0.88705078 18.84521484 1.22705078 C12.24521484 1.55705078 5.64521484 1.88705078 -1.15478516 2.22705078 C-1.48478516 6.18705078 -1.81478516 10.14705078 -2.15478516 14.22705078 C-1.04103516 14.18580078 0.07271484 14.14455078 1.22021484 14.10205078 C4.84521484 14.22705078 4.84521484 14.22705078 6.84521484 16.22705078 C5.19946918 16.25393229 3.55360071 16.27339201 1.90771484 16.28955078 C0.99119141 16.30115234 0.07466797 16.31275391 -0.86962891 16.32470703 C-3.15478516 16.22705078 -3.15478516 16.22705078 -4.15478516 15.22705078 C-4.28016257 13.08397182 -4.3305288 10.93626192 -4.34228516 8.78955078 C-4.35646484 7.61521484 -4.37064453 6.44087891 -4.38525391 5.23095703 C-4.11647792 1.72775813 -3.64726402 0.38431402 0 0 Z " fill="#324565" transform="translate(628.15478515625,656.77294921875)"/>
<path d="M0 0 C0.33 0 0.66 0 1 0 C1.19390729 2.31197155 1.37996367 4.6246029 1.5625 6.9375 C1.66691406 8.22527344 1.77132812 9.51304688 1.87890625 10.83984375 C1.91886719 11.88269531 1.95882812 12.92554688 2 14 C1.67 14.33 1.34 14.66 1 15 C0.7688199 17.51676673 0.59663561 20.0126398 0.46484375 22.53515625 C0.42186661 23.28840683 0.37888947 24.04165741 0.33460999 24.81773376 C0.19785278 27.23243289 0.06761019 29.64743446 -0.0625 32.0625 C-0.15386922 33.69598752 -0.24566053 35.32945149 -0.33789062 36.96289062 C-0.56349933 40.97500315 -0.78326464 44.98739875 -1 49 C-1.33 49 -1.66 49 -2 49 C-2.40463421 32.61231453 -1.17139831 16.33415253 0 0 Z " fill="#BFC4CF" transform="translate(713,1046)"/>
<path d="M0 0 C2 1 2 1 3.3125 3.25 C5.19161495 6.3122614 7.43432564 8.50184339 10 11 C10.33 11.66 10.66 12.32 11 13 C6.39146203 12.27991594 2.32762591 10.68704061 -2 9 C-1.01 8.34 -0.02 7.68 1 7 C0.67 4.69 0.34 2.38 0 0 Z " fill="#CCCFD9" transform="translate(513,571)"/>
<path d="M0 0 C-0.33 1.65 -0.66 3.3 -1 5 C-4.63 5 -8.26 5 -12 5 C-12 4.34 -12 3.68 -12 3 C-10.75823305 2.29773859 -9.50614401 1.61370891 -8.25 0.9375 C-7.20585937 0.36322266 -7.20585937 0.36322266 -6.140625 -0.22265625 C-3.63859372 -1.1312406 -2.4667645 -0.88336837 0 0 Z " fill="#D8DCE2" transform="translate(503,669)"/>
<path d="M0 0 C0 0.66 0 1.32 0 2 C-1.32 2.33 -2.64 2.66 -4 3 C-4 3.66 -4 4.32 -4 5 C-5.96466413 6.06775224 -7.96855359 7.06553465 -10 8 C-12 7 -12 7 -13 5 C-11.21046815 4.16209211 -9.41830305 3.32980604 -7.625 2.5 C-6.62726562 2.0359375 -5.62953125 1.571875 -4.6015625 1.09375 C-2 0 -2 0 0 0 Z " fill="#223A5C" transform="translate(647,752)"/>
<path d="M0 0 C0.66 0 1.32 0 2 0 C2.67305018 1.60149886 3.33822227 3.20631029 4 4.8125 C4.37125 5.70582031 4.7425 6.59914063 5.125 7.51953125 C6 10 6 10 6 13 C5.01 13 4.02 13 3 13 C2.49487756 11.39743892 1.99608373 9.79288208 1.5 8.1875 C1.2215625 7.29417969 0.943125 6.40085937 0.65625 5.48046875 C0 3 0 3 0 0 Z " fill="#2C405E" transform="translate(878,417)"/>
<path d="M0 0 C-7.70526316 5.13684211 -7.70526316 5.13684211 -14 5 C-5.70258621 -2.11206897 -5.70258621 -2.11206897 0 0 Z " fill="#344A69" transform="translate(673,740)"/>
<path d="M0 0 C0.99 0.33 1.98 0.66 3 1 C2.67 1.66 2.34 2.32 2 3 C1.195625 3.12375 0.39125 3.2475 -0.4375 3.375 C-1.7059375 3.684375 -1.7059375 3.684375 -3 4 C-3.309375 4.66 -3.61875 5.32 -3.9375 6 C-4.288125 6.66 -4.63875 7.32 -5 8 C-8.125 8.75 -8.125 8.75 -11 9 C-8.65839543 6.47106706 -6.17847268 4.26645809 -3.4375 2.1875 C-2.85871094 1.74792969 -2.27992188 1.30835938 -1.68359375 0.85546875 C-1.12800781 0.57316406 -0.57242188 0.29085937 0 0 Z " fill="#203757" transform="translate(787,706)"/>
<path d="M0 0 C0.70189453 0.00451172 1.40378906 0.00902344 2.12695312 0.01367188 C3.85550538 0.02543073 5.58401365 0.04336546 7.3125 0.0625 C4.46635976 2.90864024 1.50880858 2.51829076 -2.3125 2.6875 C-3.37210937 2.74550781 -3.37210937 2.74550781 -4.453125 2.8046875 C-6.19748524 2.89897724 -7.94245691 2.98182891 -9.6875 3.0625 C-10.0175 2.4025 -10.3475 1.7425 -10.6875 1.0625 C-7.06882441 -0.1437252 -3.76243749 -0.04566918 0 0 Z " fill="#0E284A" transform="translate(509.6875,663.9375)"/>
<path d="M0 0 C0.33 0 0.66 0 1 0 C2.66666667 5 4.33333333 10 6 15 C5.01 14.67 4.02 14.34 3 14 C2.67 11.69 2.34 9.38 2 7 C1.01 6.67 0.02 6.34 -1 6 C-0.67 4.02 -0.34 2.04 0 0 Z " fill="#34496A" transform="translate(351,625)"/>
<path d="M0 0 C0.66 0 1.32 0 2 0 C3.59138085 4.17737474 4.21278058 7.53160785 4 12 C3.01 12.495 3.01 12.495 2 13 C1.34 8.71 0.68 4.42 0 0 Z " fill="#2C3F5D" transform="translate(920,762)"/>
<path d="M0 0 C0.33 0.99 0.66 1.98 1 3 C-0.21484375 4.82421875 -0.21484375 4.82421875 -1.9375 6.6875 C-2.50339844 7.31011719 -3.06929687 7.93273437 -3.65234375 8.57421875 C-4.09707031 9.04472656 -4.54179688 9.51523437 -5 10 C-5.66 9.67 -6.32 9.34 -7 9 C-5.44499019 5.18315774 -2.96404505 2.80804268 0 0 Z " fill="#EBECEF" transform="translate(744,940)"/>
<path d="M0 0 C0.66 0.33 1.32 0.66 2 1 C1.505 1.680625 1.01 2.36125 0.5 3.0625 C-1.30365111 6.59465009 -1.23021353 9.08636991 -1 13 C-1.66 12.67 -2.32 12.34 -3 12 C-3.875 9.3125 -3.875 9.3125 -4 6 C-2.0625 2.625 -2.0625 2.625 0 0 Z " fill="#D4D8E1" transform="translate(556,650)"/>
<path d="M0 0 C0.66 0.33 1.32 0.66 2 1 C1.38461538 7.52307692 1.38461538 7.52307692 -0.5625 9.9375 C-1.036875 10.288125 -1.51125 10.63875 -2 11 C-2 6.91621923 -1.19287411 3.87684087 0 0 Z " fill="#E6E9ED" transform="translate(683,618)"/>
<path d="M0 0 C0 0.66 0 1.32 0 2 C-1.78871178 2.38885039 -3.58112874 2.76069196 -5.375 3.125 C-6.37273438 3.33382812 -7.37046875 3.54265625 -8.3984375 3.7578125 C-9.25695312 3.83773437 -10.11546875 3.91765625 -11 4 C-11.66 3.34 -12.32 2.68 -13 2 C-8.46298506 0.54815522 -4.81938524 -0.23509196 0 0 Z " fill="#304261" transform="translate(537,542)"/>
<path d="M0 0 C0.66 0 1.32 0 2 0 C3.28317892 3.84953676 3.06643637 6.94738135 3 11 C2.34 11 1.68 11 1 11 C0.67 7.37 0.34 3.74 0 0 Z " fill="#2D4364" transform="translate(780,476)"/>
<path d="M0 0 C0.99 0.33 1.98 0.66 3 1 C-0.96 4.465 -0.96 4.465 -5 8 C-5.66 7.67 -6.32 7.34 -7 7 C-4.69 4.69 -2.38 2.38 0 0 Z " fill="#1F385B" transform="translate(376,337)"/>
<path d="M0 0 C0.33 0.99 0.66 1.98 1 3 C-0.21484375 5.26171875 -0.21484375 5.26171875 -1.9375 7.6875 C-2.50339844 8.49574219 -3.06929687 9.30398438 -3.65234375 10.13671875 C-4.09707031 10.75160156 -4.54179688 11.36648438 -5 12 C-5.68359375 10.265625 -5.68359375 10.265625 -6 8 C-4.78515625 5.859375 -4.78515625 5.859375 -3.0625 3.75 C-2.49660156 3.04359375 -1.93070313 2.3371875 -1.34765625 1.609375 C-0.90292969 1.07828125 -0.45820312 0.5471875 0 0 Z " fill="#1E3450" transform="translate(558,644)"/>
<path d="M0 0 C3.37503669 1.1858237 5.64722731 2.27573689 8 5 C7.34 6.32 6.68 7.64 6 9 C5.5875 8.236875 5.175 7.47375 4.75 6.6875 C3.04124191 4.0633358 1.58982247 2.69678024 -1 1 C-0.67 0.67 -0.34 0.34 0 0 Z " fill="#2B3D5C" transform="translate(678,610)"/>
<path d="M0 0 C1.77007714 -0.08114106 3.54122098 -0.13925505 5.3125 -0.1875 C6.29863281 -0.22230469 7.28476562 -0.25710938 8.30078125 -0.29296875 C11 0 11 0 12.85546875 1.51171875 C13.23316406 2.00285156 13.61085938 2.49398437 14 3 C12.02 3 10.04 3 8 3 C8 2.34 8 1.68 8 1 C5.36 1 2.72 1 0 1 C0 0.67 0 0.34 0 0 Z " fill="#2D405D" transform="translate(489,727)"/>
<path d="M0 0 C2.78637633 4.1795645 1.79562512 6.14668677 1 11 C0.34 11 -0.32 11 -1 11 C-1.14285714 3.57142857 -1.14285714 3.57142857 0 0 Z " fill="#2E425F" transform="translate(513,556)"/>
<path d="M0 0 C4.79280002 0.80904103 6.13520113 3.25984591 9 7 C6 7 6 7 4.39453125 5.46875 C3.87246094 4.8190625 3.35039063 4.169375 2.8125 3.5 C2.28269531 2.8503125 1.75289062 2.200625 1.20703125 1.53125 C0.80871094 1.0259375 0.41039062 0.520625 0 0 Z " fill="#2E4360" transform="translate(744,344)"/>
<path d="M0 0 C1.9375 0.625 1.9375 0.625 4 2 C4.875 4.9375 4.875 4.9375 5 8 C4.01 9.485 4.01 9.485 3 11 C2.49384702 9.73160474 1.99530901 8.46016898 1.5 7.1875 C1.2215625 6.47980469 0.943125 5.77210938 0.65625 5.04296875 C0 3 0 3 0 0 Z " fill="#DBDDE2" transform="translate(339,546)"/>
<path d="M0 0 C2.64 0 5.28 0 8 0 C7.67 1.32 7.34 2.64 7 4 C4.625 3.6875 4.625 3.6875 2 3 C1.34 2.01 0.68 1.02 0 0 Z " fill="#1B3054" transform="translate(452,764)"/>
<path d="M0 0 C0.66 0 1.32 0 2 0 C1.34 2.31 0.68 4.62 0 7 C-1.32 7.33 -2.64 7.66 -4 8 C-2.87548273 5.0280615 -1.77706209 2.66559313 0 0 Z " fill="#223857" transform="translate(697,572)"/>
<path d="M0 0 C0.33 0.99 0.66 1.98 1 3 C0.00390625 4.82421875 0.00390625 4.82421875 -1.4375 6.6875 C-1.91058594 7.31011719 -2.38367188 7.93273437 -2.87109375 8.57421875 C-3.24363281 9.04472656 -3.61617187 9.51523437 -4 10 C-4.33 9.34 -4.66 8.68 -5 8 C-2.51612903 1.25806452 -2.51612903 1.25806452 0 0 Z " fill="#142A48" transform="translate(756,506)"/>
<path d="M0 0 C0.99 0.33 1.98 0.66 3 1 C-0.96 4.465 -0.96 4.465 -5 8 C-5.66 7.67 -6.32 7.34 -7 7 C-4.69 4.69 -2.38 2.38 0 0 Z " fill="#162D4F" transform="translate(566,789)"/>
<path d="M0 0 C1.32 0.33 2.64 0.66 4 1 C1.69 2.65 -0.62 4.3 -3 6 C-3.66 5.67 -4.32 5.34 -5 5 C-2.75 2.4375 -2.75 2.4375 0 0 Z " fill="#132B4D" transform="translate(522,545)"/>
<path d="M0 0 C0.66 0.33 1.32 0.66 2 1 C1.071875 2.1446875 1.071875 2.1446875 0.125 3.3125 C-2.05597052 5.99625809 -2.05597052 5.99625809 -4 9 C-3.38461538 3.46153846 -3.38461538 3.46153846 -1.4375 1.125 C-0.963125 0.75375 -0.48875 0.3825 0 0 Z " fill="#CAD0D9" transform="translate(920,727)"/>
<path d="M0 0 C1.07349791 4.29399165 0.79682816 5.19495213 -1 9 C-1.66 9 -2.32 9 -3 9 C-2.01 6.03 -1.02 3.06 0 0 Z " fill="#DADDE5" transform="translate(347,467)"/>
<path d="M0 0 C2.64 0.33 5.28 0.66 8 1 C8 1.66 8 2.32 8 3 C5.36 2.67 2.72 2.34 0 2 C0 1.34 0 0.68 0 0 Z " fill="#263959" transform="translate(658,298)"/>
<path d="M0 0 C-0.99 0 -1.98 0 -3 0 C-3 0.66 -3 1.32 -3 2 C-4.98 2.99 -4.98 2.99 -7 4 C-7 3.34 -7 2.68 -7 2 C-7.99 1.67 -8.98 1.34 -10 1 C-3.71428571 -1.42857143 -3.71428571 -1.42857143 0 0 Z " fill="#304362" transform="translate(521,258)"/>
</svg>
